<svg width="36" height="36" viewBox="0 0 36 36" fill="none" xmlns="http://www.w3.org/2000/svg">
<path d="M13.5 12V9C13.5 8.20435 13.8161 7.44129 14.3787 6.87868C14.9413 6.31607 15.7044 6 16.5 6H27C27.7956 6 28.5587 6.31607 29.1213 6.87868C29.6839 7.44129 30 8.20435 30 9V27C30 27.7956 29.6839 28.5587 29.1213 29.1213C28.5587 29.6839 27.7956 30 27 30H16.5C15.7044 30 14.9413 29.6839 14.3787 29.1213C13.8161 28.5587 13.5 27.7956 13.5 27V24" stroke="#F7BF06" stroke-width="2.25" stroke-linecap="round" stroke-linejoin="round"/>
<path d="M4.5 18H24L19.5 13.5" stroke="#F7BF06" stroke-width="2.25" stroke-linecap="round" stroke-linejoin="round"/>
<path d="M19.5 22.5L24 18" stroke="#F7BF06" stroke-width="2.25" stroke-linecap="round" stroke-linejoin="round"/>
</svg>
