<svg width="36" height="36" viewBox="0 0 36 36" fill="none" xmlns="http://www.w3.org/2000/svg">
<path d="M15 21L31.5 4.5" stroke="#0061A1" stroke-width="2.25" stroke-linecap="round" stroke-linejoin="round"/>
<path d="M31.5 4.5L21.75 31.5C21.6842 31.6436 21.5785 31.7653 21.4456 31.8506C21.3126 31.936 21.158 31.9813 21 31.9813C20.842 31.9813 20.6874 31.936 20.5544 31.8506C20.4215 31.7653 20.3158 31.6436 20.25 31.5L15 21L4.49998 15.75C4.35637 15.6842 4.23467 15.5785 4.14935 15.4456C4.06403 15.3126 4.01868 15.158 4.01868 15C4.01868 14.842 4.06403 14.6874 4.14935 14.5544C4.23467 14.4215 4.35637 14.3158 4.49998 14.25L31.5 4.5Z" stroke="#0061A1" stroke-width="2.25" stroke-linecap="round" stroke-linejoin="round"/>
</svg>
