<svg width="36" height="36" viewBox="0 0 36 36" fill="none" xmlns="http://www.w3.org/2000/svg">
<path d="M7.5 6H13.5L16.5 13.5L12.75 15.75C14.3564 19.0073 16.9927 21.6436 20.25 23.25L22.5 19.5L30 22.5V28.5C30 29.2956 29.6839 30.0587 29.1213 30.6213C28.5587 31.1839 27.7956 31.5 27 31.5C21.1489 31.1444 15.6302 28.6597 11.4852 24.5148C7.34026 20.3698 4.85557 14.8511 4.5 9C4.5 8.20435 4.81607 7.44129 5.37868 6.87868C5.94129 6.31607 6.70435 6 7.5 6Z" stroke="#F7BF06" stroke-width="2.25" stroke-linecap="round" stroke-linejoin="round"/>
<path d="M22.5 10.5C23.2956 10.5 24.0587 10.8161 24.6213 11.3787C25.1839 11.9413 25.5 12.7044 25.5 13.5" stroke="#F7BF06" stroke-width="2.25" stroke-linecap="round" stroke-linejoin="round"/>
<path d="M22.5 4.5C24.8869 4.5 27.1761 5.44821 28.864 7.13604C30.5518 8.82387 31.5 11.1131 31.5 13.5" stroke="#F7BF06" stroke-width="2.25" stroke-linecap="round" stroke-linejoin="round"/>
</svg>
