<svg width="106" height="106" viewBox="0 0 106 106" fill="none" xmlns="http://www.w3.org/2000/svg">
<path d="M68.9352 87.8864C56.3913 91.8118 42.1434 91.1184 29.7121 85.1131L4.52783 90.4464L11.4937 69.6464C-0.959113 51.3158 3.85268 27.6624 22.7462 14.3184C41.6397 0.979768 68.7744 2.0731 86.2158 16.8784C95.0517 24.3824 100.014 34.2278 100.908 44.3558" stroke="#0061A1" stroke-width="9" stroke-linecap="round" stroke-linejoin="round"/>
<path d="M90.2614 101.113V101.166" stroke="#0061A1" stroke-width="9" stroke-linecap="round" stroke-linejoin="round"/>
<path d="M90.2614 85.1131C92.6635 85.1054 94.9936 84.296 96.8788 82.8142C98.764 81.3324 100.095 79.2639 100.66 76.9399C101.224 74.6159 100.989 72.1706 99.9913 69.9955C98.994 67.8203 97.2924 66.0411 95.1589 64.9424C93.0272 63.8555 90.5888 63.5185 88.2403 63.9863C85.8917 64.454 83.7713 65.6989 82.2239 67.5184" stroke="#0061A1" stroke-width="9" stroke-linecap="round" stroke-linejoin="round"/>
</svg>
