<svg width="52" height="52" viewBox="0 0 52 52" fill="none" xmlns="http://www.w3.org/2000/svg">
<path d="M8.66669 17.3333C8.66669 15.0348 9.57978 12.8304 11.2051 11.2051C12.8304 9.57976 15.0348 8.66667 17.3334 8.66667H34.6667C36.9652 8.66667 39.1696 9.57976 40.7949 11.2051C42.4203 12.8304 43.3334 15.0348 43.3334 17.3333V34.6667C43.3334 36.9652 42.4203 39.1696 40.7949 40.7949C39.1696 42.4202 36.9652 43.3333 34.6667 43.3333H17.3334C15.0348 43.3333 12.8304 42.4202 11.2051 40.7949C9.57978 39.1696 8.66669 36.9652 8.66669 34.6667V17.3333Z" stroke="#0061A1" stroke-width="2.25" stroke-linecap="round" stroke-linejoin="round"/>
<path d="M19.5 26C19.5 27.7239 20.1848 29.3772 21.4038 30.5962C22.6228 31.8152 24.2761 32.5 26 32.5C27.7239 32.5 29.3772 31.8152 30.5962 30.5962C31.8152 29.3772 32.5 27.7239 32.5 26C32.5 24.2761 31.8152 22.6228 30.5962 21.4038C29.3772 20.1848 27.7239 19.5 26 19.5C24.2761 19.5 22.6228 20.1848 21.4038 21.4038C20.1848 22.6228 19.5 24.2761 19.5 26Z" stroke="#0061A1" stroke-width="2.25" stroke-linecap="round" stroke-linejoin="round"/>
<path d="M35.75 16.25V16.2717" stroke="#0061A1" stroke-width="2.25" stroke-linecap="round" stroke-linejoin="round"/>
</svg>
