<svg width="245" height="65" viewBox="0 0 245 65" fill="none" xmlns="http://www.w3.org/2000/svg">
<path d="M51.6971 40.3904V24.231L40.2597 12.7936H24.1003L12.6628 24.231V40.3904L24.1003 51.8278H40.2597L51.6971 40.3904ZM46.2562 38.1356L38.0049 46.3869H26.3387L18.0874 38.1356V26.4694L26.3387 18.2182H38.0049L46.2562 26.4694V38.1356Z" fill="#0061A1"/>
<path d="M64.36 45.6353V18.9698L45.5046 0.130707H18.8554L0 18.9698V45.6353L18.8554 64.4907H45.5209L64.3763 45.6353H64.36ZM55.4878 41.959L41.8283 55.6185H22.5154L8.85583 41.959V22.6461L22.5154 8.98654H41.8283L55.4878 22.6461V41.959Z" fill="#0061A1"/>
<path d="M245.3 64.4907V0H50.8147L68.1342 17.3359V47.1385L50.8147 64.4743H245.3V64.4907ZM102.659 27.2864L116.449 54.4911H105.012L95.9925 36.1749L89.5058 44.6876V54.4748H79.1468V9.99957H89.5058V30.5379L103.868 9.99957H115.763L102.659 27.2864ZM151.921 54.4911H121.286V9.99957H151.921V19.1495H131.841V27.2211H147.918V36.2403H131.841V45.3248H151.921V54.4748V54.4911ZM191.217 45.717C191.217 51.6318 188.358 54.4911 182.443 54.4911H166.545C160.63 54.4911 157.771 51.6318 157.771 45.717V18.7737C157.771 12.7936 160.696 9.99957 166.61 9.99957H182.508C188.423 9.99957 191.217 12.7936 191.217 18.7737V26.5348H180.662V20.3749C180.662 19.4273 180.352 19.1658 179.453 19.1658H169.535C168.653 19.1658 168.326 19.4273 168.326 20.3749V44.1484C168.326 45.0307 168.636 45.3575 169.535 45.3575H179.453C180.335 45.3575 180.662 45.0471 180.662 44.1484V37.9232H191.217V45.7497V45.717ZM221.788 27.2864L235.578 54.4911H224.141L215.121 36.1749L208.635 44.6876V54.4748H198.276V9.99957H208.635V30.5379L222.997 9.99957H234.892L221.788 27.2864Z" fill="#0061A1"/>
</svg>