<svg width="297" height="78" viewBox="0 0 297 78" fill="none" xmlns="http://www.w3.org/2000/svg">
<path d="M62.4821 48.8391V29.2995L48.6586 15.4697H29.128L15.3046 29.2995V48.8391L29.128 62.6689H48.6586L62.4821 48.8391ZM55.9061 46.1127L45.9334 56.0899H31.8335L21.8608 46.1127V32.0062L31.8335 22.029H45.9334L55.9061 32.0062V46.1127Z" fill="white"/>
<path d="M77.7867 55.1811V22.9379L54.9977 0.158203H22.789L0 22.9379V55.1811L22.789 77.9806H55.0174L77.8064 55.1811H77.7867ZM67.0636 50.7358L50.5544 67.2526H27.2125L10.7033 50.7358V27.3832L27.2125 10.8664H50.5544L67.0636 27.3832V50.7358Z" fill="white"/>
<path d="M296.474 77.9804V0H61.4158L82.3485 20.9621V56.9986L61.4158 77.9607H296.474V77.9804ZM124.076 32.994L140.743 65.8892H126.919L116.018 43.7417L108.179 54.0351V65.8695H95.6585V12.0912H108.179V36.9256L125.537 12.0912H139.913L124.076 32.994ZM183.615 65.8892H146.588V12.0912H183.615V23.1551H159.345V32.915H178.777V43.8208H159.345V54.8056H183.615V65.8695V65.8892ZM231.109 55.2798C231.109 62.4318 227.653 65.8892 220.504 65.8892H201.29C194.141 65.8892 190.685 62.4318 190.685 55.2798V22.7007C190.685 15.4696 194.22 12.0912 201.369 12.0912H220.583C227.732 12.0912 231.109 15.4696 231.109 22.7007V32.0852H218.352V24.6368C218.352 23.4909 217.977 23.1748 216.89 23.1748H204.903C203.837 23.1748 203.442 23.4909 203.442 24.6368V53.3831C203.442 54.45 203.817 54.8451 204.903 54.8451H216.89C217.957 54.8451 218.352 54.4697 218.352 53.3831V45.8557H231.109V55.3193V55.2798ZM268.057 32.994L284.724 65.8892H270.901L260 43.7417L252.16 54.0351V65.8695H239.64V12.0912H252.16V36.9256L269.518 12.0912H283.895L268.057 32.994Z" fill="white"/>
</svg>
